# xmcd
#
# Track frame offsets:
#	150
#	9567
#	21760
#	37497
#	56887
#	74507
#	98290
#	113792
#	126590
#	145937
#	166047
#	197307
#	211972
#	224365
#	236720
#	250167
#	261907
#	272960
#	284885
#
# Disc length: 4025
#
# Revision: 1
# Processed by: cddbd v1.5.1PL0 Copyright (c) Steve Scherf et al.
# Submitted via: CDex 1.51
# Normalized: r0:TDELIM( - )
#
DISCID=2c0fb713
DTITLE=La fabuleuse histoire du rock - Rythm and blues - Soul
DYEAR=1900
DGENRE=Rhythmic Soul
TTITLE0=sam cooke - wonderful world
TTITLE1=solomon burke - just out of reach (of my two open arms)
TTITLE2=sceamin'jay hawkins - i put a spell on you
TTITLE3=the o'jays - where did we go wrong
TTITLE4=curtis mayfield - people get ready (live)
TTITLE5=james browm - sex machine
TTITLE6=ike and tina turner - river deep, mountain high
TTITLE7=aretha franklin - walk on by
TTITLE8=bill withers - learn on me
TTITLE9=billy paul - your song
TTITLE10=the temptations - papa was a rolling stone
TTITLE11=marvin gaye - i heard it through the grapevine
TTITLE12=four tops - baby i need your loving
TTITLE13=smokey robinson - shop around
TTITLE14=the jackson's five - i want you back
TTITLE15=diano ross and the supremes - baby love
TTITLE16=the marvelettes - please mister postaman
TTITLE17=marthe and the vandellas - dancing in the street
TTITLE18=the commodors - still
EXTD=
EXTT0=
EXTT1=
EXTT2=
EXTT3=
EXTT4=
EXTT5=
EXTT6=
EXTT7=
EXTT8=
EXTT9=
EXTT10=
EXTT11=
EXTT12=
EXTT13=
EXTT14=
EXTT15=
EXTT16=
EXTT17=
EXTT18=
PLAYORDER=
